<svg width="36" height="32" viewBox="0 0 36 32" fill="none" xmlns="http://www.w3.org/2000/svg">
<path d="M8 22C3.582 22 0 18.418 0 14C0 9.582 3.582 6 8 6C8.834 6 9.636 6.128 10.392 6.364C11.518 2.68 14.946 0 19 0C23.97 0 28 4.03 28 9C28 9.47 27.964 9.93 27.894 10.38C28.55 10.134 29.258 10 30 10C33.314 10 36 12.686 36 16C36 19.314 33.314 22 30 22H8Z" fill="url(#paint0_linear_1_12)"/>
<path d="M10 9C10 13.97 14.03 18 19 18C23.502 18 27.23 14.696 27.894 10.38C28.55 10.134 29.258 10 30 10C33.314 10 36 12.686 36 16C36 19.314 33.314 22 30 22H8C3.582 22 0 18.418 0 14C0 9.582 3.582 6 8 6C8.834 6 9.636 6.128 10.392 6.364C10.136 7.198 10 8.082 10 9Z" fill="url(#paint1_radial_1_12)"/>
<path d="M11 20.9167L15.5259 11H24L18.8 18.5833H23.35L11.2889 32L14.9 20.9167H11Z" fill="#F6C209"/>
<defs>
<linearGradient id="paint0_linear_1_12" x1="18" y1="0" x2="18" y2="22" gradientUnits="userSpaceOnUse">
<stop stop-color="#9FC7FF"/>
<stop offset="1" stop-color="#9BC1F5"/>
</linearGradient>
<radialGradient id="paint1_radial_1_12" cx="0" cy="0" r="1" gradientUnits="userSpaceOnUse" gradientTransform="translate(4.75395 -30.6966) rotate(-90) scale(20.9574 6.69705)">
<stop stop-color="#486DA8" stop-opacity="0.4"/>
<stop offset="1" stop-color="#486DA8" stop-opacity="0"/>
</radialGradient>
</defs>
</svg>
