<svg width="20" height="18" viewBox="0 0 20 18" fill="none" xmlns="http://www.w3.org/2000/svg">
<path d="M16.087 1.6087C13.9291 1.6087 12.1739 3.36436 12.1739 5.52175C12.1739 5.76175 12.3683 5.95653 12.6087 5.95653C12.8491 5.95653 13.0435 5.76175 13.0435 5.52175C13.0435 3.84349 14.4091 2.47827 16.087 2.47827C17.7648 2.47827 19.1304 3.84349 19.1304 5.52175C19.1304 7.20001 17.7648 8.56523 16.087 8.56523H0.434783C0.194783 8.56523 0 8.76001 0 9.00001C0 9.24001 0.194783 9.43479 0.434783 9.43479H16.087C18.2448 9.43479 20 7.67914 20 5.52175C20 3.36436 18.2448 1.6087 16.087 1.6087Z" fill="#007AFF"/>
<path d="M0.434783 6.82609H7.82609C9.50435 6.82609 10.8696 5.46087 10.8696 3.78261C10.8696 2.10435 9.50435 0.739136 7.82609 0.739136C6.14783 0.739136 4.78261 2.10435 4.78261 3.78261C4.78261 4.02261 4.97739 4.2174 5.21739 4.2174C5.45739 4.2174 5.65217 4.02261 5.65217 3.78261C5.65217 2.58392 6.62739 1.6087 7.82609 1.6087C9.02478 1.6087 10 2.58392 10 3.78261C10 4.98131 9.02478 5.95653 7.82609 5.95653H0.434783C0.194783 5.95653 0 6.15131 0 6.39131C0 6.63131 0.194783 6.82609 0.434783 6.82609Z" fill="#007AFF"/>
<path d="M15.2174 16.3913C14.0187 16.3913 13.0435 15.4161 13.0435 14.2174C13.0435 13.9774 12.8491 13.7826 12.6087 13.7826C12.3683 13.7826 12.1739 13.9774 12.1739 14.2174C12.1739 15.8957 13.5396 17.2609 15.2174 17.2609C16.8952 17.2609 18.2609 15.8957 18.2609 14.2174C18.2609 12.5391 16.8952 11.1739 15.2174 11.1739H0.434783C0.194783 11.1739 0 11.3687 0 11.6087C0 11.8487 0.194783 12.0435 0.434783 12.0435H15.2174C16.4161 12.0435 17.3913 13.0187 17.3913 14.2174C17.3913 15.4161 16.4161 16.3913 15.2174 16.3913Z" fill="#007AFF"/>
</svg>
